# xmcd
#
# Track frame offsets: 
#        182
#        12087
#        22837
#        33570
#        45322
#        56285
#        67432
#        81210
#        92312
#        101755
#        113162
#        123275
#        135332
#        148465
#        157175
#        165272
#        177810
#        190375
#        202870
#        215337
#
# Disc length: 2992 seconds
#
# Revision: 2
# Processed by: cddbd v1.4PL0 Copyright (c) Steve Scherf et al.
# Submitted via: ExactAudioCopy v0.90b3
#
DISCID=080bae14
DTITLE=Porter Wagoner and Dolly Parton - Two Of A Kind
DYEAR=1900
DGENRE=Country
TTITLE0=Two Of A Kind
TTITLE1=You and Me-Her and Him
TTITLE2=Just Someone I Used To Know
TTITLE3=Fight and Scratch
TTITLE4=Something To Reach For
TTITLE5=Holding On To Nothin'
TTITLE6=Daddy Was An Old Time Preacher Man
TTITLE7=The  Power Of Love
TTITLE8=In Each Love Some Rain Must Fall
TTITLE9=We Found It
TTITLE10=Better Move It On Home
TTITLE11=Before Our Weakness Gets To Strong
TTITLE12=The Right Combination
TTITLE13=We'll Get Ahead Someday
TTITLE14=Burning The Midnight Oil
TTITLE15=Say Forever You'll Be Mine
TTITLE16=Please Don't Stop Loving Me
TTITLE17=Jeannie's Afraid Of The Dark
TTITLE18=I've Been Married Just As Long As You Have
TTITLE19=The House Where Love Lives
EXTD=
EXTT0=
EXTT1=
EXTT2=
EXTT3=
EXTT4=
EXTT5=
EXTT6=
EXTT7=
EXTT8=
EXTT9=
EXTT10=
EXTT11=
EXTT12=
EXTT13=
EXTT14=
EXTT15=
EXTT16=
EXTT17=
EXTT18=
EXTT19=
PLAYORDER=
